<svg width="14" height="14" viewBox="0 0 14 14" fill="none" xmlns="http://www.w3.org/2000/svg">
<path d="M6.99984 1.16669C5.4715 1.16669 4.229 2.40919 4.229 3.93752C4.229 5.43669 5.4015 6.65002 6.92984 6.70252C6.9765 6.69669 7.02317 6.69669 7.05817 6.70252C7.06984 6.70252 7.07567 6.70252 7.08734 6.70252C7.09317 6.70252 7.09317 6.70252 7.099 6.70252C8.59234 6.65002 9.76484 5.43669 9.77067 3.93752C9.77067 2.40919 8.52817 1.16669 6.99984 1.16669Z" fill="#292D32"/>
<path d="M9.96356 8.25418C8.33606 7.16918 5.68189 7.16918 4.04272 8.25418C3.30189 8.75001 2.89355 9.42085 2.89355 10.1383C2.89355 10.8558 3.30189 11.5208 4.03689 12.0108C4.85355 12.5592 5.92689 12.8333 7.00022 12.8333C8.07356 12.8333 9.14689 12.5592 9.96356 12.0108C10.6986 11.515 11.1069 10.85 11.1069 10.1267C11.1011 9.40918 10.6986 8.74418 9.96356 8.25418Z" fill="#292D32"/>
</svg>
