<svg width="12" height="12" viewBox="0 0 12 12" fill="none" xmlns="http://www.w3.org/2000/svg">
<path d="M8.37499 1.78V1C8.37499 0.795 8.20499 0.625 7.99999 0.625C7.79499 0.625 7.62499 0.795 7.62499 1V1.75H4.37499V1C4.37499 0.795 4.20499 0.625 3.99999 0.625C3.79499 0.625 3.62499 0.795 3.62499 1V1.78C2.27499 1.905 1.61999 2.71 1.51999 3.905C1.50999 4.05 1.62999 4.17 1.76999 4.17H10.23C10.375 4.17 10.495 4.045 10.48 3.905C10.38 2.71 9.72499 1.905 8.37499 1.78Z" fill="white"/>
<path d="M10 4.92004H2C1.725 4.92004 1.5 5.14504 1.5 5.42004V8.50004C1.5 10 2.25 11 4 11H8C9.75 11 10.5 10 10.5 8.50004V5.42004C10.5 5.14504 10.275 4.92004 10 4.92004ZM4.605 9.10504C4.58 9.12504 4.555 9.15004 4.53 9.16504C4.5 9.18504 4.47 9.20004 4.44 9.21004C4.41 9.22504 4.38 9.23504 4.35 9.24004C4.315 9.24504 4.285 9.25004 4.25 9.25004C4.185 9.25004 4.12 9.23504 4.06 9.21004C3.995 9.18504 3.945 9.15004 3.895 9.10504C3.805 9.01004 3.75 8.88004 3.75 8.75004C3.75 8.62004 3.805 8.49004 3.895 8.39504C3.945 8.35004 3.995 8.31504 4.06 8.29004C4.15 8.25004 4.25 8.24004 4.35 8.26004C4.38 8.26504 4.41 8.27504 4.44 8.29004C4.47 8.30004 4.5 8.31504 4.53 8.33504C4.555 8.35504 4.58 8.37504 4.605 8.39504C4.695 8.49004 4.75 8.62004 4.75 8.75004C4.75 8.88004 4.695 9.01004 4.605 9.10504ZM4.605 7.35504C4.51 7.44504 4.38 7.50004 4.25 7.50004C4.12 7.50004 3.99 7.44504 3.895 7.35504C3.805 7.26004 3.75 7.13004 3.75 7.00004C3.75 6.87004 3.805 6.74004 3.895 6.64504C4.035 6.50504 4.255 6.46004 4.44 6.54004C4.505 6.56504 4.56 6.60004 4.605 6.64504C4.695 6.74004 4.75 6.87004 4.75 7.00004C4.75 7.13004 4.695 7.26004 4.605 7.35504ZM6.355 9.10504C6.26 9.19504 6.13 9.25004 6 9.25004C5.87 9.25004 5.74 9.19504 5.645 9.10504C5.555 9.01004 5.5 8.88004 5.5 8.75004C5.5 8.62004 5.555 8.49004 5.645 8.39504C5.83 8.21004 6.17 8.21004 6.355 8.39504C6.445 8.49004 6.5 8.62004 6.5 8.75004C6.5 8.88004 6.445 9.01004 6.355 9.10504ZM6.355 7.35504C6.33 7.37504 6.305 7.39504 6.28 7.41504C6.25 7.43504 6.22 7.45004 6.19 7.46004C6.16 7.47504 6.13 7.48504 6.1 7.49004C6.065 7.49504 6.035 7.50004 6 7.50004C5.87 7.50004 5.74 7.44504 5.645 7.35504C5.555 7.26004 5.5 7.13004 5.5 7.00004C5.5 6.87004 5.555 6.74004 5.645 6.64504C5.69 6.60004 5.745 6.56504 5.81 6.54004C5.995 6.46004 6.215 6.50504 6.355 6.64504C6.445 6.74004 6.5 6.87004 6.5 7.00004C6.5 7.13004 6.445 7.26004 6.355 7.35504ZM8.105 9.10504C8.01 9.19504 7.88 9.25004 7.75 9.25004C7.62 9.25004 7.49 9.19504 7.395 9.10504C7.305 9.01004 7.25 8.88004 7.25 8.75004C7.25 8.62004 7.305 8.49004 7.395 8.39504C7.58 8.21004 7.92 8.21004 8.105 8.39504C8.195 8.49004 8.25 8.62004 8.25 8.75004C8.25 8.88004 8.195 9.01004 8.105 9.10504ZM8.105 7.35504C8.08 7.37504 8.055 7.39504 8.03 7.41504C8 7.43504 7.97 7.45004 7.94 7.46004C7.91 7.47504 7.88 7.48504 7.85 7.49004C7.815 7.49504 7.78 7.50004 7.75 7.50004C7.62 7.50004 7.49 7.44504 7.395 7.35504C7.305 7.26004 7.25 7.13004 7.25 7.00004C7.25 6.87004 7.305 6.74004 7.395 6.64504C7.445 6.60004 7.495 6.56504 7.56 6.54004C7.65 6.50004 7.75 6.49004 7.85 6.51004C7.88 6.51504 7.91 6.52504 7.94 6.54004C7.97 6.55004 8 6.56504 8.03 6.58504C8.055 6.60504 8.08 6.62504 8.105 6.64504C8.195 6.74004 8.25 6.87004 8.25 7.00004C8.25 7.13004 8.195 7.26004 8.105 7.35504Z" fill="white"/>
</svg>
