<svg width="16" height="16" viewBox="0 0 16 16" fill="none" xmlns="http://www.w3.org/2000/svg">
<path d="M7.99992 1.33325C4.32659 1.33325 1.33325 4.32659 1.33325 7.99992C1.33325 11.6733 4.32659 14.6666 7.99992 14.6666C11.6733 14.6666 14.6666 11.6733 14.6666 7.99992C14.6666 4.32659 11.6733 1.33325 7.99992 1.33325ZM9.85992 8.35325L7.50659 10.7066C7.40659 10.8066 7.27992 10.8533 7.15325 10.8533C7.02659 10.8533 6.89992 10.8066 6.79992 10.7066C6.60659 10.5133 6.60659 10.1933 6.79992 9.99992L8.79992 7.99992L6.79992 5.99992C6.60659 5.80659 6.60659 5.48659 6.79992 5.29325C6.99325 5.09992 7.31325 5.09992 7.50659 5.29325L9.85992 7.64659C10.0599 7.83992 10.0599 8.15992 9.85992 8.35325Z" fill="#6D58EA"/>
</svg>
