<svg width="27" height="27" viewBox="0 0 27 27" fill="none" xmlns="http://www.w3.org/2000/svg">
<path d="M13.4998 2.25C7.30101 2.25 2.24976 7.30125 2.24976 13.5C2.24976 19.6988 7.30101 24.75 13.4998 24.75C19.6985 24.75 24.7498 19.6988 24.7498 13.5C24.7498 7.30125 19.6985 2.25 13.4998 2.25ZM16.6385 14.0963L12.6673 18.0675C12.4985 18.2363 12.2848 18.315 12.071 18.315C11.8573 18.315 11.6435 18.2363 11.4748 18.0675C11.1485 17.7413 11.1485 17.2013 11.4748 16.875L14.8498 13.5L11.4748 10.125C11.1485 9.79875 11.1485 9.25875 11.4748 8.9325C11.801 8.60625 12.341 8.60625 12.6673 8.9325L16.6385 12.9038C16.976 13.23 16.976 13.77 16.6385 14.0963Z" fill="#E13434"/>
<path d="M16.6385 14.0963L12.6673 18.0675C12.4985 18.2363 12.2848 18.315 12.071 18.315C11.8573 18.315 11.6435 18.2363 11.4748 18.0675C11.1485 17.7413 11.1485 17.2013 11.4748 16.875L14.8498 13.5L11.4748 10.125C11.1485 9.79875 11.1485 9.25875 11.4748 8.9325C11.801 8.60625 12.341 8.60625 12.6673 8.9325L16.6385 12.9038C16.976 13.23 16.976 13.77 16.6385 14.0963Z" fill="#E13434"/>
<path d="M17.5 8.5L8.5 17.5" stroke="white" stroke-linecap="round" stroke-linejoin="round"/>
<path d="M8.5 8.5L17.5 17.5" stroke="white" stroke-linecap="round" stroke-linejoin="round"/>
</svg>
