<svg width="14" height="14" viewBox="0 0 14 14" fill="none" xmlns="http://www.w3.org/2000/svg">
<path d="M9.444 1.16666H4.55567C2.43234 1.16666 1.1665 2.43249 1.1665 4.55582V9.43832C1.1665 11.5675 2.43234 12.8333 4.55567 12.8333H9.43817C11.5615 12.8333 12.8273 11.5675 12.8273 9.44416V4.55582C12.8332 2.43249 11.5673 1.16666 9.444 1.16666ZM9.18734 9.18749H4.81234C4.57317 9.18749 4.37484 8.98916 4.37484 8.74999C4.37484 8.51082 4.57317 8.31249 4.81234 8.31249H9.18734C9.4265 8.31249 9.62484 8.51082 9.62484 8.74999C9.62484 8.98916 9.4265 9.18749 9.18734 9.18749ZM9.18734 5.68749H4.81234C4.57317 5.68749 4.37484 5.48916 4.37484 5.24999C4.37484 5.01082 4.57317 4.81249 4.81234 4.81249H9.18734C9.4265 4.81249 9.62484 5.01082 9.62484 5.24999C9.62484 5.48916 9.4265 5.68749 9.18734 5.68749Z" fill="#292D32"/>
</svg>
