<svg width="27" height="27" viewBox="0 0 27 27" fill="none" xmlns="http://www.w3.org/2000/svg">
<path d="M13.4998 2.25C7.30101 2.25 2.24976 7.30125 2.24976 13.5C2.24976 19.6988 7.30101 24.75 13.4998 24.75C19.6985 24.75 24.7498 19.6988 24.7498 13.5C24.7498 7.30125 19.6985 2.25 13.4998 2.25ZM16.6385 14.0963L12.6673 18.0675C12.4985 18.2363 12.2848 18.315 12.071 18.315C11.8573 18.315 11.6435 18.2363 11.4748 18.0675C11.1485 17.7413 11.1485 17.2013 11.4748 16.875L14.8498 13.5L11.4748 10.125C11.1485 9.79875 11.1485 9.25875 11.4748 8.9325C11.801 8.60625 12.341 8.60625 12.6673 8.9325L16.6385 12.9038C16.976 13.23 16.976 13.77 16.6385 14.0963Z" fill="#6D58EA"/>
<path d="M16.6385 14.0963L12.6673 18.0675C12.4985 18.2363 12.2848 18.315 12.071 18.315C11.8573 18.315 11.6435 18.2363 11.4748 18.0675C11.1485 17.7413 11.1485 17.2013 11.4748 16.875L14.8498 13.5L11.4748 10.125C11.1485 9.79875 11.1485 9.25875 11.4748 8.9325C11.801 8.60625 12.341 8.60625 12.6673 8.9325L16.6385 12.9038C16.976 13.23 16.976 13.77 16.6385 14.0963Z" fill="#6D58EA"/>
<path d="M12.9375 7.875H11.8125C9 7.875 7.875 9 7.875 11.8125V15.1875C7.875 18 9 19.125 11.8125 19.125H15.1875C18 19.125 19.125 18 19.125 15.1875V14.0625" stroke="white" stroke-linecap="round" stroke-linejoin="round"/>
<path d="M15.7726 8.44871L11.3401 12.8812C11.1713 13.05 11.0026 13.3818 10.9688 13.6237L10.7269 15.3168C10.6369 15.93 11.0701 16.3575 11.6832 16.2731L13.3763 16.0312C13.6126 15.9975 13.9444 15.8287 14.1188 15.66L18.5513 11.2275C19.3163 10.4625 19.6763 9.57371 18.5513 8.44871C17.4263 7.32371 16.5376 7.68371 15.7726 8.44871Z" stroke="white" stroke-miterlimit="10" stroke-linecap="round" stroke-linejoin="round"/>
<path d="M15.137 9.08447C15.5138 10.4288 16.5657 11.4807 17.9157 11.8632" stroke="white" stroke-miterlimit="10" stroke-linecap="round" stroke-linejoin="round"/>
</svg>
