<svg width="117" height="23" viewBox="0 0 117 23" fill="none" xmlns="http://www.w3.org/2000/svg">
<path d="M0 11.7857C0 17.6721 4.74961 22.4436 10.6083 22.4436C16.467 22.4436 21.2164 17.6721 21.2164 11.7857C21.2164 5.89952 16.467 1.12797 10.6083 1.12797C4.74961 1.12797 0 5.89952 0 11.7857Z" fill="url(#paint0_linear_3_657)"/>
<path fill-rule="evenodd" clip-rule="evenodd" d="M13.3181 9.60219C13.3181 6.87663 14.9402 4.53322 17.2662 3.48916C19.6747 5.4428 21.2164 8.43159 21.2164 11.7836C21.2164 13.3945 20.8586 14.9209 20.2218 16.2899C20.1412 16.2927 20.0608 16.2959 19.9796 16.2959C16.3006 16.2959 13.3181 13.299 13.3181 9.60219Z" fill="#793F92"/>
<path d="M13.3179 6.69358C13.3179 10.3905 16.3005 13.3875 19.9795 13.3875C23.6585 13.3875 26.641 10.3905 26.641 6.69358C26.641 2.99677 23.6585 -0.0001297 19.9795 -0.0001297C16.3005 -0.0001297 13.3179 2.99677 13.3179 6.69358Z" fill="url(#paint1_linear_3_657)"/>
<path fill-rule="evenodd" clip-rule="evenodd" d="M48.3741 9.92952L44.2441 17.1867H42.482L38.352 9.92952V17.1867H35.1946V6.7026H39.8603L43.4828 13.227L47.1196 6.7026H51.6161V17.1867H48.3741V9.92952ZM62.4756 10.1972C62.4756 9.49269 61.9963 9.084 60.9532 9.084H56.4285V11.3387H60.9532C61.9821 11.3387 62.4756 10.9442 62.4756 10.2395V10.1972ZM61.0096 13.692H56.4285V17.1867H53.1442V6.7026H61.0096C64.7732 6.7026 65.9009 8.1962 65.9009 10.1126V10.2536C65.9009 12.1278 64.759 13.692 61.0096 13.692ZM66.906 6.7026H70.1903V14.5798H77.4779V17.1867H66.906V6.7026ZM85.1918 8.9713L83.2466 12.9029H87.2216L85.1918 8.9713ZM89.4205 17.1867L88.4338 15.2703H82.0766L81.1322 17.1867H77.7915L83.0916 6.7026H87.3484L92.9585 17.1867H89.4205ZM98.9815 17.1867H95.6972V13.1283L90.0872 6.7026H94.1607L97.4169 10.5636L100.729 6.7026H104.437L98.9815 13.1283V17.1867ZM109.698 10.5213L111.46 10.5496C115.407 10.634 117 11.5783 117 13.6638V13.8611C117 15.5943 116.126 17.3699 110.854 17.3699H109.882C104.384 17.3699 103.75 15.0025 103.75 13.6216V13.4666H107.175C107.218 14.0865 107.584 15.1293 110.291 15.1293H110.488C113.251 15.1293 113.561 14.5798 113.561 14.0161C113.561 13.4101 113.236 13.0156 110.812 12.9592L109.008 12.9169C105.089 12.8042 103.891 11.4796 103.891 9.84495V9.7181C103.891 8.15392 104.835 6.51932 109.6 6.51932H110.572C115.534 6.51932 116.662 8.25263 116.662 9.8308V9.9718H113.251C113.194 9.56311 112.955 8.7176 110.22 8.7176H109.994C107.457 8.7176 107.274 9.18272 107.274 9.61954C107.274 10.0564 107.542 10.4932 109.698 10.5213Z" fill="#3D4657"/>
<defs>
<linearGradient id="paint0_linear_3_657" x1="10.6082" y1="1.12786" x2="10.6082" y2="22.4436" gradientUnits="userSpaceOnUse">
<stop stop-color="#ECC1DB"/>
<stop offset="1" stop-color="#763D94"/>
</linearGradient>
<linearGradient id="paint1_linear_3_657" x1="19.9796" y1="-8.88481e-05" x2="19.9796" y2="13.3874" gradientUnits="userSpaceOnUse">
<stop stop-color="#F47736"/>
<stop offset="1" stop-color="#FEEEA0"/>
</linearGradient>
</defs>
</svg>
