<svg width="178" height="34" viewBox="0 0 178 34" fill="none" xmlns="http://www.w3.org/2000/svg">
<path d="M0 17.8543C0 26.7715 7.19522 34 16.0706 34C24.946 34 32.1409 26.7715 32.1409 17.8543C32.1409 8.93726 24.946 1.7088 16.0706 1.7088C7.19522 1.7088 0 8.93726 0 17.8543Z" fill="url(#paint0_linear_3_519)"/>
<path fill-rule="evenodd" clip-rule="evenodd" d="M20.1755 14.5465C20.1755 10.4175 22.6328 6.86747 26.1566 5.28582C29.8051 8.2454 32.1408 12.7731 32.1408 17.8511C32.1408 20.2915 31.5987 22.6038 30.634 24.6777C30.5119 24.682 30.3901 24.6868 30.267 24.6868C24.6937 24.6868 20.1755 20.1468 20.1755 14.5465Z" fill="#793F92"/>
<path d="M20.1754 10.1403C20.1754 15.7409 24.6937 20.2809 30.2671 20.2809C35.8404 20.2809 40.3585 15.7409 40.3585 10.1403C40.3585 4.54003 35.8404 3.8147e-06 30.2671 3.8147e-06C24.6937 3.8147e-06 20.1754 4.54003 20.1754 10.1403Z" fill="url(#paint1_linear_3_519)"/>
<path fill-rule="evenodd" clip-rule="evenodd" d="M73.2821 15.0423L67.0256 26.0364H64.3562L58.0997 15.0423V26.0364H53.3164V10.1539H60.3845L65.8723 20.0377L71.3816 10.1539H78.1935V26.0364H73.2821V15.0423ZM94.6445 15.4479C94.6445 14.3806 93.9185 13.7615 92.3383 13.7615H85.4838V17.1771H92.3383C93.8971 17.1771 94.6445 16.5794 94.6445 15.5119V15.4479ZM92.4238 20.7421H85.4838V26.0364H80.5084V10.1539H92.4238C98.1252 10.1539 99.8336 12.4165 99.8336 15.3198V15.5334C99.8336 18.3725 98.1038 20.7421 92.4238 20.7421ZM101.356 10.1539H106.332V22.0871H117.372V26.0364H101.356V10.1539ZM129.058 13.5907L126.111 19.5467H132.132L129.058 13.5907ZM135.464 26.0364L133.969 23.1331H124.338L122.908 26.0364H117.847L125.876 10.1539H132.325L140.823 26.0364H135.464ZM149.948 26.0364H144.972V19.8882L136.474 10.1539H142.645L147.577 16.0029L152.595 10.1539H158.212L149.948 19.8882V26.0364ZM166.183 15.9389L168.852 15.9817C174.831 16.1096 177.244 17.54 177.244 20.6995V20.9983C177.244 23.6239 175.92 26.3138 167.934 26.3138H166.46C158.132 26.3138 157.172 22.7274 157.172 20.6354V20.4006H162.361C162.425 21.3398 162.98 22.9195 167.08 22.9195H167.379C171.564 22.9195 172.034 22.0871 172.034 21.2331C172.034 20.3152 171.543 19.7175 167.87 19.632L165.136 19.5679C159.2 19.3972 157.385 17.3905 157.385 14.9142V14.7221C157.385 12.3525 158.816 9.8762 166.033 9.8762H167.507C175.023 9.8762 176.732 12.502 176.732 14.8928V15.1064H171.564C171.478 14.4873 171.116 13.2064 166.973 13.2064H166.631C162.788 13.2064 162.51 13.911 162.51 14.5728C162.51 15.2345 162.916 15.8963 166.183 15.9389Z" fill="white"/>
<defs>
<linearGradient id="paint0_linear_3_519" x1="16.0705" y1="1.70863" x2="16.0705" y2="34" gradientUnits="userSpaceOnUse">
<stop stop-color="#ECC1DB"/>
<stop offset="1" stop-color="#763D94"/>
</linearGradient>
<linearGradient id="paint1_linear_3_519" x1="30.2671" y1="6.42564e-05" x2="30.2671" y2="20.2809" gradientUnits="userSpaceOnUse">
<stop stop-color="#F47736"/>
<stop offset="1" stop-color="#FEEEA0"/>
</linearGradient>
</defs>
</svg>
