<svg width="22" height="22" viewBox="0 0 22 22" fill="none" xmlns="http://www.w3.org/2000/svg">
<rect x="0.5" y="0.5" width="21" height="21" rx="10.5" stroke="white"/>
<path d="M4.94421 10.7575C8.14306 9.33456 10.2761 8.39644 11.3434 7.94319C14.3907 6.64906 15.0239 6.42426 15.4366 6.41676C15.5274 6.41521 15.7304 6.43817 15.8618 6.5471C15.9729 6.63907 16.0034 6.76331 16.018 6.8505C16.0326 6.9377 16.0508 7.13634 16.0364 7.29155C15.8712 9.06311 15.1567 13.3622 14.7932 15.3464C14.6394 16.186 14.3365 16.4675 14.0433 16.495C13.4061 16.5549 12.9222 16.0651 12.305 15.652C11.3392 15.0056 10.7936 14.6032 9.85619 13.9725C8.77282 13.2435 9.47512 12.8429 10.0925 12.1882C10.2541 12.0168 13.0617 9.40939 13.1161 9.17286C13.1229 9.14328 13.1292 9.03301 13.065 8.97478C13.0009 8.91655 12.9062 8.93647 12.8378 8.9523C12.741 8.97475 11.1981 10.0159 8.20936 12.0758C7.77143 12.3829 7.37477 12.5325 7.01938 12.5246C6.62759 12.516 5.87394 12.2985 5.31367 12.1125C4.62649 11.8844 4.08033 11.7639 4.12789 11.3765C4.15266 11.1748 4.42477 10.9684 4.94421 10.7575Z" fill="white"/>
</svg>
