<svg width="24" height="24" viewBox="0 0 24 24" fill="none" xmlns="http://www.w3.org/2000/svg">
<rect x="1" y="1" width="22" height="22" rx="11" stroke="white"/>
<path fill-rule="evenodd" clip-rule="evenodd" d="M18.9968 8.57837C19.0988 8.23844 18.9968 7.98859 18.5115 7.98859H16.907C16.499 7.98859 16.311 8.2044 16.209 8.44244C16.209 8.44244 15.393 10.4313 14.237 11.7232C13.8631 12.0971 13.6931 12.216 13.4891 12.216C13.3871 12.216 13.2395 12.0971 13.2395 11.7572V8.57837C13.2395 8.17036 13.1211 7.98859 12.781 7.98859H10.2596C10.0047 7.98859 9.85136 8.17792 9.85136 8.3574C9.85136 8.74421 10.4292 8.83338 10.4888 9.92126V12.2842C10.4888 12.8022 10.3953 12.8962 10.1913 12.8962C9.64735 12.8962 8.32429 10.8983 7.53944 8.61241C7.38564 8.16807 7.23137 7.98859 6.8213 7.98859H5.21675C4.75831 7.98859 4.66663 8.2044 4.66663 8.44244C4.66663 8.86742 5.21068 10.9753 7.19951 13.7631C8.52555 15.6668 10.3935 16.699 12.0934 16.699C13.1134 16.699 13.2395 16.4697 13.2395 16.0749V14.636C13.2395 14.1775 13.3361 14.0861 13.6589 14.0861C13.8971 14.0861 14.305 14.205 15.2571 15.123C16.3449 16.2107 16.5242 16.699 17.1362 16.699H18.7407C19.1992 16.699 19.4284 16.4697 19.2961 16.0174C19.1515 15.5665 18.6321 14.9125 17.9428 14.1371C17.5689 13.695 17.0078 13.219 16.838 12.9811C16.5999 12.6751 16.6679 12.5392 16.838 12.2673C16.838 12.2673 18.7928 9.51347 18.9968 8.57848V8.57837Z" fill="white"/>
</svg>
