<svg width="24" height="24" viewBox="0 0 24 24" fill="none" xmlns="http://www.w3.org/2000/svg">
<rect x="1" y="1" width="22" height="22" rx="11" stroke="#020202"/>
<path fill-rule="evenodd" clip-rule="evenodd" d="M18.9969 8.57837C19.0989 8.23844 18.9969 7.98859 18.5116 7.98859H16.9071C16.4991 7.98859 16.3111 8.2044 16.2091 8.44244C16.2091 8.44244 15.3931 10.4313 14.2371 11.7232C13.8632 12.0971 13.6932 12.216 13.4892 12.216C13.3872 12.216 13.2396 12.0971 13.2396 11.7572V8.57837C13.2396 8.17036 13.1212 7.98859 12.7811 7.98859H10.2597C10.0048 7.98859 9.85148 8.17792 9.85148 8.3574C9.85148 8.74421 10.4293 8.83338 10.4889 9.92126V12.2842C10.4889 12.8022 10.3954 12.8962 10.1914 12.8962C9.64747 12.8962 8.32441 10.8983 7.53956 8.61241C7.38576 8.16807 7.23149 7.98859 6.82142 7.98859H5.21688C4.75844 7.98859 4.66675 8.2044 4.66675 8.44244C4.66675 8.86742 5.2108 10.9753 7.19963 13.7631C8.52567 15.6668 10.3936 16.699 12.0935 16.699C13.1135 16.699 13.2396 16.4697 13.2396 16.0749V14.636C13.2396 14.1775 13.3362 14.0861 13.6591 14.0861C13.8972 14.0861 14.3051 14.205 15.2572 15.123C16.3451 16.2107 16.5243 16.699 17.1363 16.699H18.7409C19.1993 16.699 19.4285 16.4697 19.2963 16.0174C19.1516 15.5665 18.6322 14.9125 17.943 14.1371C17.569 13.695 17.008 13.219 16.8381 12.9811C16.6001 12.6751 16.668 12.5392 16.8381 12.2673C16.8381 12.2673 18.7929 9.51347 18.9969 8.57848V8.57837Z" fill="#020202"/>
</svg>
